<svg width="33" height="47" viewBox="0 0 33 47" fill="none" xmlns="http://www.w3.org/2000/svg">
<path d="M16.4225 0C7.36694 0 0 7.36782 0 16.4244C0 25.1854 15.014 45.146 15.6536 45.9924C15.8332 46.2339 16.1212 46.375 16.4226 46.375C16.724 46.375 17.0119 46.2339 17.1915 45.9924C17.831 45.146 32.8451 25.1855 32.8451 16.4244C32.8449 7.36782 25.478 0 16.4225 0ZM16.4225 25.1197C11.629 25.1197 7.7282 21.2184 7.7282 16.4244C7.7282 11.6304 11.629 7.72913 16.4225 7.72913C21.2159 7.72913 25.1167 11.6304 25.1167 16.4244C25.1167 21.2184 21.2159 25.1197 16.4225 25.1197Z" fill="url(#paint0_linear)"/>
<defs>
<linearGradient id="paint0_linear" x1="-6.1328" y1="-2.43806e-07" x2="40.9298" y2="10.1182" gradientUnits="userSpaceOnUse">
<stop stop-color="#4BD8B5"/>
<stop offset="1" stop-color="#49D6DF"/>
</linearGradient>
</defs>
</svg>
